<svg width="90" height="91" viewBox="0 0 90 91" fill="none" xmlns="http://www.w3.org/2000/svg">
<path d="M0 0.65625H90V90.6562H0V0.65625Z" fill="white"/>
<path d="M44.2336 81.0502C64.4352 81.0502 80.8119 64.6735 80.8119 44.4719C80.8119 24.2702 64.4352 7.89355 44.2336 7.89355C24.0319 7.89355 7.65527 24.2702 7.65527 44.4719C7.65527 64.6735 24.0319 81.0502 44.2336 81.0502Z" fill="black" stroke="black" stroke-width="2" stroke-miterlimit="10"/>
<path d="M37.9371 39.8996C39.8328 39.5179 41.7055 39.0296 43.5463 38.4371C41.2289 34.1358 38.2647 30.2158 34.7572 26.8145C29.6596 29.5496 25.7924 34.4293 24.5426 40.2529C28.2867 41.007 32.915 40.9104 37.9371 39.8996Z" fill="white" stroke="black" stroke-width="2" stroke-miterlimit="10"/>
<path d="M57.0076 29.0787L56.6789 30.3742C56.1603 32.4502 51.7746 35.4191 46.023 37.5654L45.7629 37.6604C43.4563 33.2916 40.5172 29.2875 37.0406 25.7775C39.3192 24.8585 41.7503 24.3761 44.2072 24.3555C48.561 24.3831 52.7877 25.8255 56.25 28.4652C56.5186 28.649 56.772 28.8542 57.0076 29.0787Z" fill="white" stroke="black" stroke-width="2" stroke-miterlimit="10"/>
<path d="M46.6822 45.4383C46.0705 43.7648 45.3867 42.1383 44.6308 40.5586C42.5935 41.2393 40.5151 41.7906 38.4082 42.2092C35.5836 42.7862 32.7094 43.0859 29.8266 43.1039C27.9269 43.1145 26.0303 42.9492 24.1611 42.61C24.1137 43.2217 24.1699 43.8404 24.1699 44.4715C24.169 47.4161 24.8169 50.3247 26.0678 52.9904C27.3186 55.6561 29.1415 58.0134 31.4068 59.8945C31.4297 59.7539 31.4543 59.6115 31.4771 59.4709C32.3736 54.0428 38.6437 48.3141 46.6822 45.4383Z" fill="white" stroke="black" stroke-width="2" stroke-miterlimit="10"/>
<path d="M47.4609 47.6553C49.0941 52.8562 49.9674 58.2658 50.0537 63.7164C47.3568 64.5468 44.5131 64.7883 41.7148 64.4244C38.9165 64.0604 36.2291 63.0997 33.8344 61.607C33.7205 61.0237 33.7127 60.4247 33.8115 59.8387C34.5428 55.3879 40.3875 50.227 47.4609 47.6553Z" fill="white" stroke="black" stroke-width="2" stroke-miterlimit="10"/>
<path d="M64.1109 47.3249C63.1213 54.2331 58.5404 60.0075 52.3635 62.7655C52.1969 57.3938 51.2925 52.0705 49.6758 46.9452C54.958 45.481 59.9625 45.6567 64.1109 47.3249Z" fill="white" stroke="black" stroke-width="2" stroke-miterlimit="10"/>
<path d="M64.3236 44.4711V44.8965C59.8219 43.223 54.4799 43.151 48.9217 44.7312C48.31 43.0332 47.6016 41.3914 46.8475 39.7812C50.7147 38.3258 57.9533 34.9771 58.9641 30.9395C62.3869 34.6166 64.3003 39.4474 64.3236 44.4711Z" fill="white" stroke="black" stroke-width="2" stroke-miterlimit="10"/>
<path d="M37.9336 39.8906C39.832 39.5039 41.6953 39.0117 43.541 38.4316C41.2207 34.125 38.2676 30.2051 34.752 26.8125C29.6543 29.5547 25.7871 34.4238 24.5391 40.2422C28.2832 41.0156 32.9062 40.9102 37.9336 39.8906Z" stroke="black" stroke-width="2" stroke-miterlimit="10"/>
<path d="M57.0059 29.0801L56.6719 30.3809C56.1445 32.4551 51.7676 35.4258 46.0195 37.5703L45.7559 37.6582C43.4531 33.2812 40.5176 29.291 37.0371 25.7754C39.3223 24.8613 41.748 24.3691 44.209 24.3516C48.5684 24.3867 52.7871 25.8281 56.25 28.4648C56.5137 28.6406 56.7773 28.8516 57.0059 29.0801Z" stroke="black" stroke-width="2" stroke-miterlimit="10"/>
<path d="M46.6875 45.4453C46.0723 43.7754 45.3867 42.1406 44.6308 40.5586C42.5918 41.2441 40.5176 41.7891 38.4082 42.2109C35.5781 42.791 32.7129 43.0898 29.8301 43.1074C27.9316 43.125 26.0332 42.9492 24.1699 42.6152C24.1172 43.2305 24.1875 43.8457 24.1875 44.4785C24.1875 50.4375 26.8418 56.0977 31.4297 59.8945C31.4473 59.7539 31.4824 59.6133 31.5 59.4727C32.3789 54.041 38.6367 48.3105 46.6875 45.4453Z" stroke="black" stroke-width="2" stroke-miterlimit="10"/>
<path d="M47.4609 47.6602C49.0957 52.8633 49.9746 58.2773 50.0625 63.7266C44.6133 65.4141 38.6895 64.6406 33.8379 61.6172C33.7148 61.0371 33.7148 60.4395 33.8203 59.8418C34.541 55.3945 40.3945 50.2266 47.4609 47.6602Z" stroke="black" stroke-width="2" stroke-miterlimit="10"/>
<path d="M64.1074 47.3264C63.123 54.2346 58.5352 60.0002 52.3652 62.76C52.207 57.3811 51.293 52.0725 49.6758 46.9396C54.9492 45.4807 59.959 45.6564 64.1074 47.3264Z" stroke="black" stroke-width="2" stroke-miterlimit="10"/>
<path d="M64.3184 44.4785V44.9004C59.8184 43.2305 54.4746 43.1602 48.9199 44.7422C48.3047 43.0371 47.6016 41.4023 46.8457 39.7852C50.7129 38.3262 57.9551 34.9863 58.957 30.9434C62.3848 34.6172 64.3008 39.4512 64.3184 44.4785Z" stroke="black" stroke-width="2" stroke-miterlimit="10"/>
<path d="M44.2266 81.0586C64.4292 81.0586 80.8066 64.6811 80.8066 44.4785C80.8066 24.2759 64.4292 7.89844 44.2266 7.89844C24.0239 7.89844 7.64648 24.2759 7.64648 44.4785C7.64648 64.6811 24.0239 81.0586 44.2266 81.0586Z" stroke="black" stroke-width="2" stroke-miterlimit="10"/>
</svg>
